<svg xmlns="http://www.w3.org/2000/svg" viewBox="0 0 407.50 477.50">
  <style>
    .key-bg { fill: #f5f5f5; stroke: #d4d4d4; stroke-width: 1; }
    .key-index { fill: #171717; font-family: ui-monospace, SFMono-Regular, "SF Mono", Menlo, Consolas, "Liberation Mono", monospace; font-weight: 700; text-anchor: middle; dominant-baseline: central; }
    .key-part { font-family: system-ui, -apple-system, BlinkMacSystemFont, "Segoe UI", Roboto, sans-serif; text-anchor: middle; dominant-baseline: central; }
    @media (prefers-color-scheme: dark) {
      .key-bg { fill: #2a2a2a; stroke: #404040; }
      .key-index { fill: #e5e5e5; }
    }
  </style>
  <g>
    <path class="key-bg" d="M 26.00,22.00 L 84.00,22.00 Q 88.00,22.00 88.00,26.00 L 88.00,84.00 Q 88.00,88.00 84.00,88.00 L 26.00,88.00 Q 22.00,88.00 22.00,84.00 L 22.00,26.00 Q 22.00,22.00 26.00,22.00 Z" />
    <path class="key-bg" d="M 113.50,22.00 L 171.50,22.00 Q 175.50,22.00 175.50,26.00 L 175.50,84.00 Q 175.50,88.00 171.50,88.00 L 113.50,88.00 Q 109.50,88.00 109.50,84.00 L 109.50,26.00 Q 109.50,22.00 113.50,22.00 Z" />
    <path class="key-bg" d="M 183.50,22.00 L 241.50,22.00 Q 245.50,22.00 245.50,26.00 L 245.50,84.00 Q 245.50,88.00 241.50,88.00 L 183.50,88.00 Q 179.50,88.00 179.50,84.00 L 179.50,26.00 Q 179.50,22.00 183.50,22.00 Z" />
    <path class="key-bg" d="M 253.50,22.00 L 311.50,22.00 Q 315.50,22.00 315.50,26.00 L 315.50,84.00 Q 315.50,88.00 311.50,88.00 L 253.50,88.00 Q 249.50,88.00 249.50,84.00 L 249.50,26.00 Q 249.50,22.00 253.50,22.00 Z" />
    <path class="key-bg" d="M 323.50,22.00 L 381.50,22.00 Q 385.50,22.00 385.50,26.00 L 385.50,84.00 Q 385.50,88.00 381.50,88.00 L 323.50,88.00 Q 319.50,88.00 319.50,84.00 L 319.50,26.00 Q 319.50,22.00 323.50,22.00 Z" />
    <path class="key-bg" d="M 26.00,109.50 L 84.00,109.50 Q 88.00,109.50 88.00,113.50 L 88.00,171.50 Q 88.00,175.50 84.00,175.50 L 26.00,175.50 Q 22.00,175.50 22.00,171.50 L 22.00,113.50 Q 22.00,109.50 26.00,109.50 Z" />
    <path class="key-bg" d="M 113.50,109.50 L 171.50,109.50 Q 175.50,109.50 175.50,113.50 L 175.50,171.50 Q 175.50,175.50 171.50,175.50 L 113.50,175.50 Q 109.50,175.50 109.50,171.50 L 109.50,113.50 Q 109.50,109.50 113.50,109.50 Z" />
    <path class="key-bg" d="M 183.50,109.50 L 241.50,109.50 Q 245.50,109.50 245.50,113.50 L 245.50,171.50 Q 245.50,175.50 241.50,175.50 L 183.50,175.50 Q 179.50,175.50 179.50,171.50 L 179.50,113.50 Q 179.50,109.50 183.50,109.50 Z" />
    <path class="key-bg" d="M 253.50,109.50 L 311.50,109.50 Q 315.50,109.50 315.50,113.50 L 315.50,171.50 Q 315.50,175.50 311.50,175.50 L 253.50,175.50 Q 249.50,175.50 249.50,171.50 L 249.50,113.50 Q 249.50,109.50 253.50,109.50 Z" />
    <path class="key-bg" d="M 323.50,109.50 L 381.50,109.50 Q 385.50,109.50 385.50,113.50 L 385.50,171.50 Q 385.50,175.50 381.50,175.50 L 323.50,175.50 Q 319.50,175.50 319.50,171.50 L 319.50,113.50 Q 319.50,109.50 323.50,109.50 Z" />
    <path class="key-bg" d="M 26.00,179.50 L 84.00,179.50 Q 88.00,179.50 88.00,183.50 L 88.00,241.50 Q 88.00,245.50 84.00,245.50 L 26.00,245.50 Q 22.00,245.50 22.00,241.50 L 22.00,183.50 Q 22.00,179.50 26.00,179.50 Z" />
    <path class="key-bg" d="M 113.50,179.50 L 171.50,179.50 Q 175.50,179.50 175.50,183.50 L 175.50,241.50 Q 175.50,245.50 171.50,245.50 L 113.50,245.50 Q 109.50,245.50 109.50,241.50 L 109.50,183.50 Q 109.50,179.50 113.50,179.50 Z" />
    <path class="key-bg" d="M 183.50,179.50 L 241.50,179.50 Q 245.50,179.50 245.50,183.50 L 245.50,241.50 Q 245.50,245.50 241.50,245.50 L 183.50,245.50 Q 179.50,245.50 179.50,241.50 L 179.50,183.50 Q 179.50,179.50 183.50,179.50 Z" />
    <path class="key-bg" d="M 253.50,179.50 L 311.50,179.50 Q 315.50,179.50 315.50,183.50 L 315.50,241.50 Q 315.50,245.50 311.50,245.50 L 253.50,245.50 Q 249.50,245.50 249.50,241.50 L 249.50,183.50 Q 249.50,179.50 253.50,179.50 Z" />
    <path class="key-bg" d="M 323.50,179.50 L 381.50,179.50 Q 385.50,179.50 385.50,183.50 L 385.50,311.50 Q 385.50,315.50 381.50,315.50 L 323.50,315.50 Q 319.50,315.50 319.50,311.50 L 319.50,183.50 Q 319.50,179.50 323.50,179.50 Z" />
    <path class="key-bg" d="M 26.00,249.50 L 84.00,249.50 Q 88.00,249.50 88.00,253.50 L 88.00,311.50 Q 88.00,315.50 84.00,315.50 L 26.00,315.50 Q 22.00,315.50 22.00,311.50 L 22.00,253.50 Q 22.00,249.50 26.00,249.50 Z" />
    <path class="key-bg" d="M 113.50,249.50 L 171.50,249.50 Q 175.50,249.50 175.50,253.50 L 175.50,311.50 Q 175.50,315.50 171.50,315.50 L 113.50,315.50 Q 109.50,315.50 109.50,311.50 L 109.50,253.50 Q 109.50,249.50 113.50,249.50 Z" />
    <path class="key-bg" d="M 183.50,249.50 L 241.50,249.50 Q 245.50,249.50 245.50,253.50 L 245.50,311.50 Q 245.50,315.50 241.50,315.50 L 183.50,315.50 Q 179.50,315.50 179.50,311.50 L 179.50,253.50 Q 179.50,249.50 183.50,249.50 Z" />
    <path class="key-bg" d="M 253.50,249.50 L 311.50,249.50 Q 315.50,249.50 315.50,253.50 L 315.50,311.50 Q 315.50,315.50 311.50,315.50 L 253.50,315.50 Q 249.50,315.50 249.50,311.50 L 249.50,253.50 Q 249.50,249.50 253.50,249.50 Z" />
    <path class="key-bg" d="M 26.00,319.50 L 84.00,319.50 Q 88.00,319.50 88.00,323.50 L 88.00,381.50 Q 88.00,385.50 84.00,385.50 L 26.00,385.50 Q 22.00,385.50 22.00,381.50 L 22.00,323.50 Q 22.00,319.50 26.00,319.50 Z" />
    <path class="key-bg" d="M 113.50,319.50 L 171.50,319.50 Q 175.50,319.50 175.50,323.50 L 175.50,381.50 Q 175.50,385.50 171.50,385.50 L 113.50,385.50 Q 109.50,385.50 109.50,381.50 L 109.50,323.50 Q 109.50,319.50 113.50,319.50 Z" />
    <path class="key-bg" d="M 183.50,319.50 L 241.50,319.50 Q 245.50,319.50 245.50,323.50 L 245.50,381.50 Q 245.50,385.50 241.50,385.50 L 183.50,385.50 Q 179.50,385.50 179.50,381.50 L 179.50,323.50 Q 179.50,319.50 183.50,319.50 Z" />
    <path class="key-bg" d="M 253.50,319.50 L 311.50,319.50 Q 315.50,319.50 315.50,323.50 L 315.50,381.50 Q 315.50,385.50 311.50,385.50 L 253.50,385.50 Q 249.50,385.50 249.50,381.50 L 249.50,323.50 Q 249.50,319.50 253.50,319.50 Z" />
    <path class="key-bg" d="M 323.50,319.50 L 381.50,319.50 Q 385.50,319.50 385.50,323.50 L 385.50,451.50 Q 385.50,455.50 381.50,455.50 L 323.50,455.50 Q 319.50,455.50 319.50,451.50 L 319.50,323.50 Q 319.50,319.50 323.50,319.50 Z" />
    <path class="key-bg" d="M 26.00,389.50 L 84.00,389.50 Q 88.00,389.50 88.00,393.50 L 88.00,451.50 Q 88.00,455.50 84.00,455.50 L 26.00,455.50 Q 22.00,455.50 22.00,451.50 L 22.00,393.50 Q 22.00,389.50 26.00,389.50 Z" />
    <path class="key-bg" d="M 113.50,389.50 L 241.50,389.50 Q 245.50,389.50 245.50,393.50 L 245.50,451.50 Q 245.50,455.50 241.50,455.50 L 113.50,455.50 Q 109.50,455.50 109.50,451.50 L 109.50,393.50 Q 109.50,389.50 113.50,389.50 Z" />
    <path class="key-bg" d="M 253.50,389.50 L 311.50,389.50 Q 315.50,389.50 315.50,393.50 L 315.50,451.50 Q 315.50,455.50 311.50,455.50 L 253.50,455.50 Q 249.50,455.50 249.50,451.50 L 249.50,393.50 Q 249.50,389.50 253.50,389.50 Z" />
  </g>
  <g>
    <text class="key-index" x="55.00" y="55.00" font-size="36">0</text>
    <text class="key-index" x="142.50" y="55.00" font-size="36">1</text>
    <text class="key-index" x="212.50" y="55.00" font-size="36">2</text>
    <text class="key-index" x="282.50" y="55.00" font-size="36">3</text>
    <text class="key-index" x="352.50" y="55.00" font-size="36">4</text>
    <text class="key-index" x="55.00" y="142.50" font-size="36">5</text>
    <text class="key-index" x="142.50" y="142.50" font-size="36">6</text>
    <text class="key-index" x="212.50" y="142.50" font-size="36">7</text>
    <text class="key-index" x="282.50" y="142.50" font-size="36">8</text>
    <text class="key-index" x="352.50" y="142.50" font-size="36">9</text>
    <text class="key-index" x="55.00" y="212.50" font-size="36">10</text>
    <text class="key-index" x="142.50" y="212.50" font-size="36">11</text>
    <text class="key-index" x="212.50" y="212.50" font-size="36">12</text>
    <text class="key-index" x="282.50" y="212.50" font-size="36">13</text>
    <text class="key-index" x="352.50" y="247.50" font-size="36">14</text>
    <text class="key-index" x="55.00" y="282.50" font-size="36">15</text>
    <text class="key-index" x="142.50" y="282.50" font-size="36">16</text>
    <text class="key-index" x="212.50" y="282.50" font-size="36">17</text>
    <text class="key-index" x="282.50" y="282.50" font-size="36">18</text>
    <text class="key-index" x="55.00" y="352.50" font-size="36">19</text>
    <text class="key-index" x="142.50" y="352.50" font-size="36">20</text>
    <text class="key-index" x="212.50" y="352.50" font-size="36">21</text>
    <text class="key-index" x="282.50" y="352.50" font-size="36">22</text>
    <text class="key-index" x="352.50" y="387.50" font-size="36">23</text>
    <text class="key-index" x="55.00" y="422.50" font-size="36">24</text>
    <text class="key-index" x="177.50" y="422.50" font-size="36">25</text>
    <text class="key-index" x="282.50" y="422.50" font-size="36">26</text>
  </g>
</svg>
